# xmcd
#
# Track frame offsets:
#	150
#	27033
#	54612
#	77481
#	104658
#	136186
#	158838
#	180602
#	192829
#	213548
#	243374
#	280776
#
# Disc length: 4029 seconds
#
# Revision: 1
# Processed by: cddbd v1.5.1PL2 Copyright (c) Steve Scherf et al.
# Submitted via: EasyCDDAExtractor 8.0.2.1
#
DISCID=9f0fbb0c
DTITLE=Deep Purple - OFI Stadium Heraklion 16-07-05 Disc 1
DYEAR=2005
DGENRE=Hard Rock
TTITLE0=Silver Tongue
TTITLE1=Woman From Tokyo
TTITLE2=Strange Kind Of Woman
TTITLE3=I Got Your Number
TTITLE4=Demon's Eye
TTITLE5=Sometimes i Feel Like Screaming
TTITLE6=Contact Lost
TTITLE7=The Well Dressed Guitar
TTITLE8=Don's Solo
TTITLE9=Perfect Strangers
TTITLE10=Highway Star
TTITLE11=Space Truckin'
EXTD=
EXTT0=
EXTT1=
EXTT2=
EXTT3=
EXTT4=
EXTT5=
EXTT6=
EXTT7=
EXTT8=
EXTT9=
EXTT10=
EXTT11=
PLAYORDER=
